<svg width="512" height="512" viewBox="0 0 512 512" fill="none" xmlns="http://www.w3.org/2000/svg">
  <defs>
    <linearGradient id="bg" x1="64" y1="48" x2="448" y2="464" gradientUnits="userSpaceOnUse">
      <stop offset="0" stop-color="#F97316"/>
      <stop offset="0.52" stop-color="#2563EB"/>
      <stop offset="1" stop-color="#0F172A"/>
    </linearGradient>
    <linearGradient id="shine" x1="128" y1="96" x2="384" y2="416" gradientUnits="userSpaceOnUse">
      <stop offset="0" stop-color="#FFFFFF" stop-opacity="0.28"/>
      <stop offset="1" stop-color="#FFFFFF" stop-opacity="0"/>
    </linearGradient>
  </defs>
  <rect width="512" height="512" rx="120" fill="url(#bg)"/>
  <circle cx="256" cy="256" r="172" fill="white" fill-opacity="0.1"/>
  <path d="M114 148C114 126.356 131.356 109 153 109H359C380.644 109 398 126.356 398 148V364C398 385.644 380.644 403 359 403H153C131.356 403 114 385.644 114 364V148Z" fill="white" fill-opacity="0.14"/>
  <path d="M138 138H374V174H138V138Z" fill="#FFFFFF" fill-opacity="0.18"/>
  <path d="M138 338H374V374H138V338Z" fill="#000000" fill-opacity="0.10"/>
  <path d="M174 180L214 332H252L272 253L292 332H330L370 180H333L309 285L284 180H240L216 285L192 180H174Z" fill="#FFFFFF"/>
  <path d="M118 152C118 130.46 135.46 113 157 113H355C376.54 113 394 130.46 394 152V180H118V152Z" fill="url(#shine)"/>
  <path d="M138 338H374V374H138V338Z" fill="#FFFFFF" fill-opacity="0.10"/>
</svg>
